<svg xmlns="http://www.w3.org/2000/svg" xmlns:xlink="http://www.w3.org/1999/xlink" xmlns:lucid="lucid" width="1832" height="1139"><g transform="translate(0 -289)" lucid:page-tab-id="AnCOuEEADTMA"><path d="M0 0h1832v1428H0z" fill="#fff"/><path d="M540 423.52c0 22.1-40.3 40-90 40s-90-17.9-90-40 40.3-40 90-40 90 17.9 90 40z" stroke="#000" stroke-opacity="0" stroke-width="2" fill="#ff9e56"/><use xlink:href="#a" transform="matrix(1,0,0,1,365,388.5183333333042) translate(43.574999999999996 38.4625)"/><path d="M480 534c0 22.1-40.3 40-90 40s-90-17.9-90-40 40.3-40 90-40 90 17.9 90 40z" stroke="#000" stroke-opacity="0" stroke-width="2" fill="#ff9e56"/><use xlink:href="#b" transform="matrix(1,0,0,1,305,499) translate(45.55 38.4625)"/><path d="M565 502c0-4.42 3.58-8 8-8h164c4.42 0 8 3.58 8 8v64c0 4.42-3.58 8-8 8H573c-4.42 0-8-3.58-8-8z" stroke="#000" stroke-width="2" fill-opacity="0"/><use xlink:href="#c" transform="matrix(1,0,0,1,570,499) translate(66.05 38.4625)"/><path d="M535.8 436.42l38.4 57.16" stroke="#333" fill="none"/><path d="M536.22 436.15l-.83.55-.2-.27.63-.86z" fill="#333"/><path fill="#333"/><path d="M480.5 534h83" stroke="#333" fill="none"/><path d="M480.5 534.5h-.5v-1h.5zM564 534.5h-.5v-1h.5z" fill="#333"/><path d="M500 644.48c0 22.1-40.3 40-90 40s-90-17.9-90-40 40.3-40 90-40 90 17.9 90 40z" stroke="#000" stroke-opacity="0" stroke-width="2" fill="#ff9e56"/><use xlink:href="#d" transform="matrix(1,0,0,1,325,609.4816666666958) translate(62.574999999999996 38.4625)"/><path d="M480.3 619l84.88-47.87" stroke="#333" fill="none"/><path d="M480.54 619.44l-.2.1-.5-.28-.52-.28.73-.4zM565.9 571.3l-.48.27-.5-.87.42-.23z" fill="#333"/><path d="M1040 760c0 22.1-40.3 40-90 40s-90-17.9-90-40 40.3-40 90-40 90 17.9 90 40z" stroke="#000" stroke-opacity="0" stroke-width="2" fill="#ff9e56"/><use xlink:href="#e" transform="matrix(1,0,0,1,865,725) translate(51.05 38.4625)"/><path d="M891.08 790.66l-45.7 39.3" stroke="#333" fill="none"/><path d="M892 790.54l-.6.5-.66-.75.18-.16zM845.7 830.32l-.7.62v-1.32l.06-.05z" fill="#333"/><path d="M1060 860c0 22.1-40.3 40-90 40s-90-17.9-90-40 40.3-40 90-40 90 17.9 90 40z" stroke="#000" stroke-opacity="0" stroke-width="2" fill="#ff9e56"/><use xlink:href="#f" transform="matrix(1,0,0,1,885,825) translate(61.5 38.4625)"/><path d="M879.52 859.86l-34.04-9.96" stroke="#333" fill="none"/><path d="M880 859.48v1.04l-.63-.18.28-.96zM845.63 849.42l-.28.96-.35-.1v-1.04z" fill="#333"/><path d="M760 380c0 22.1-40.3 40-90 40s-90-17.9-90-40 40.3-40 90-40 90 17.9 90 40z" stroke="#000" stroke-opacity="0" stroke-width="2" fill="#ff9e56"/><use xlink:href="#g" transform="matrix(1,0,0,1,585,345) translate(76.025 38.4625)"/><path d="M669.9 420.5l-14.8 72" stroke="#333" fill="none"/><path d="M670 420h.5l-.1.6-1-.2.1-.4zM655.6 492.6l-.1.4h-1l.1-.6z" fill="#333"/><path d="M520.34 839V737H655V593.5" stroke="#000" stroke-width="2" fill="none"/><path d="M521.34 840h-2v-1.03h2z"/><path d="M655 578.24l4.64 14.26h-9.28z" stroke="#000" stroke-width="2"/><path d="M755 801.55V737H655V593.5" stroke="#000" stroke-width="2" fill="none"/><path d="M756 802.55h-2v-1.02h2z"/><path d="M655 578.24l4.64 14.26h-9.28z" stroke="#000" stroke-width="2"/><path d="M430.34 848c0-4.42 3.6-8 8-8h164c4.42 0 8 3.58 8 8v64c0 4.42-3.58 8-8 8h-164c-4.4 0-8-3.58-8-8z" stroke="#000" stroke-opacity="0" stroke-width="2" fill="#ff9e56"/><use xlink:href="#h" transform="matrix(1,0,0,1,435.34484456553037,845) translate(49.55 38.4625)"/><path d="M665 810.55c0-4.4 3.58-8 8-8h164c4.42 0 8 3.6 8 8v64c0 4.42-3.58 8-8 8H673c-4.42 0-8-3.58-8-8z" stroke="#000" stroke-opacity="0" stroke-width="2" fill="#ff9e56"/><use xlink:href="#i" transform="matrix(1,0,0,1,670,807.5533113513936) translate(42.05 38.4625)"/><path d="M513.7 979.96c3.66-2.45 9.63-2.45 13.3 0l61.7 41.12c3.66 2.45 3.66 6.43 0 8.88l-61.7 41.12c-3.67 2.45-9.64 2.45-13.3 0l-61.7-41.12c-3.67-2.45-3.67-6.43 0-8.88z" stroke="#fe5900" stroke-width="4" fill="#fff"/><use xlink:href="#j" transform="matrix(1,0,0,1,450.34484456553037,980.5183333333043) translate(38.55499999999999 48.15)"/><path d="M520.34 975.7v-55.2" stroke="#333" fill="none"/><path d="M520.84 976.23l-1-.06v-.48h1zM520.84 920.5h-1v-.5h1z" fill="#333"/><path d="M430.34 1139.04c0-4.42 3.6-8 8-8h164c4.42 0 8 3.58 8 8v64c0 4.4-3.58 8-8 8h-164c-4.4 0-8-3.6-8-8z" stroke="#000" stroke-width="2" fill-opacity="0"/><use xlink:href="#k" transform="matrix(1,0,0,1,435.3448445654931,1136.0366666666087) translate(44.074999999999996 38.4625)"/><path d="M520.34 1129.54v-54.2" stroke="#333" fill="none"/><path d="M520.84 1130.04h-1v-.52h1zM520.84 1074.87v.48h-1v-.55z" fill="#333"/><path d="M880 1139.04c0-4.42 3.58-8 8-8h164c4.42 0 8 3.58 8 8v64c0 4.4-3.58 8-8 8H888c-4.42 0-8-3.6-8-8z" stroke="#000" stroke-width="2" fill-opacity="0"/><use xlink:href="#l" transform="matrix(1,0,0,1,885,1136.0366666666087) translate(60.025 38.4625)"/><path d="M748.34 1124.44c3.68-2.45 9.64-2.45 13.32 0l61.68 41.12c3.68 2.45 3.68 6.43 0 8.88l-61.68 41.12c-3.68 2.45-9.64 2.45-13.32 0l-61.68-41.12c-3.68-2.45-3.68-6.43 0-8.88z" stroke="#fe5900" stroke-width="4" fill="#fff"/><use xlink:href="#m" transform="matrix(1,0,0,1,685,1125) translate(34.55499999999999 48.15)"/><path d="M828.47 1170.35l50.03.25" stroke="#333" fill="none"/><path d="M828.5 1169.85l-.02 1h-.58l.15-1zM879 1170.1v1h-.52v-1z" fill="#333"/><path d="M611.84 1170.63l69.6-.3" stroke="#333" fill="none"/><path d="M611.86 1171.13h-.52v-1h.52zM681.87 1170.7l.05.12h-.5v-1h.58z" fill="#333"/><path d="M1420 1170c0 22.1-40.3 40-90 40s-90-17.9-90-40 40.3-40 90-40 90 17.9 90 40z" stroke="#000" stroke-opacity="0" stroke-width="2" fill="#ff9e56"/><use xlink:href="#n" transform="matrix(1,0,0,1,1245,1135) translate(36.574999999999996 38.4625)"/><path d="M1239.5 1170.26l-178 .5" stroke="#333" fill="none"/><path d="M1240 1170v.28l.02.48h-.53v-1h.5zM1061.5 1171.27h-.5v-1h.5z" fill="#333"/><path d="M1314.66 1340c0 22.1-40.3 40-90 40s-90-17.9-90-40 40.3-40 90-40 90 17.9 90 40z" stroke="#000" stroke-opacity="0" stroke-width="2" fill="#ff9e56"/><use xlink:href="#o" transform="matrix(1,0,0,1,1139.6551554345065,1305) translate(64.05 38.4625)"/><path d="M1155.1 1314.1l-94.78-115.6" stroke="#333" fill="none"/><path d="M1155.87 1314.24l-.9.47-.26-.3.78-.64z" fill="#333"/><path d="M1060.33 1198.5l-.33-.4" stroke="#333" fill="none"/><path d="M940 1040c0 22.1-40.3 40-90 40s-90-17.9-90-40 40.3-40 90-40 90 17.9 90 40z" stroke="#000" stroke-opacity="0" stroke-width="2" fill="#ff9e56"/><use xlink:href="#p" transform="matrix(1,0,0,1,765,1005) translate(56.55 38.4625)"/><path d="M850.36 1080.35l51.02 49.34" stroke="#333" fill="none"/><path d="M850 1080h.72l-.7.72-.76-.74zM902.46 1130.04h-1.43l.7-.72z" fill="#333"/><path d="M1420 1078.94c0 22.1-40.3 40-90 40s-90-17.9-90-40 40.3-40 90-40 90 17.9 90 40z" stroke="#000" stroke-opacity="0" stroke-width="2" fill="#ff9e56"/><use xlink:href="#q" transform="matrix(1,0,0,1,1245,1043.9413874155443) translate(56.525 38.4625)"/><path d="M1259.86 1104.38l-198.37 45.78" stroke="#333" fill="none"/><path d="M1260.15 1104.17l.9.45-1.1.25-.2-.94zM1061.6 1150.64l-.6.14v-1.02l.4-.1z" fill="#333"/><path d="M920.22 1320c0 22.1-40.3 40-90 40s-90-17.9-90-40 40.3-40 90-40 90 17.9 90 40z" stroke="#000" stroke-opacity="0" stroke-width="2" fill="#ff9e56"/><use xlink:href="#r" transform="matrix(1,0,0,1,745.2223883790643,1285) translate(66.025 38.4625)"/><path d="M830.6 1279.67l77.52-67.3" stroke="#333" fill="none"/><path d="M830.92 1280.02l-.7-.02h-.77l.83-.7zM908.44 1212.75l-.62-.7h1.44z" fill="#333"/><path d="M1110.85 1340c0 22.1-40.3 40-90 40s-90-17.9-90-40 40.3-40 90-40 90 17.9 90 40z" stroke="#000" stroke-opacity="0" stroke-width="2" fill="#ff9e56"/><use xlink:href="#s" transform="matrix(1,0,0,1,935.8489523638623,1305) translate(42.574999999999996 38.4625)"/><path d="M1020.75 1299.5l-17.85-86.97" stroke="#333" fill="none"/><path d="M1021.36 1300h-1.02l-.08-.4.98-.2zM1003.4 1212.44l-1 .2-.1-.6h1z" fill="#333"/><path d="M1100.22 1000c0 22.1-40.3 40-90 40s-90-17.9-90-40 40.3-40 90-40 90 17.9 90 40z" stroke="#000" stroke-opacity="0" stroke-width="2" fill="#ff9e56"/><use xlink:href="#g" transform="matrix(1,0,0,1,925.2223883790643,965) translate(76.025 38.4625)"/><path d="M1010.12 1040.5l-18.15 89.05" stroke="#333" fill="none"/><path d="M1010.22 1040h.5l-.1.6-1-.2.1-.4zM992.46 1129.63l-.08.4h-1.02l.12-.6z" fill="#333"/><path d="M1218 884.44c3.67-2.45 9.64-2.45 13.3 0l61.7 41.12c3.67 2.45 3.67 6.43 0 8.88l-61.7 41.12c-3.66 2.45-9.63 2.45-13.3 0l-61.7-41.12c-3.66-2.45-3.66-6.43 0-8.88z" stroke="#fe5900" stroke-width="4" fill="#fff"/><use xlink:href="#m" transform="matrix(1,0,0,1,1154.6551554345065,885) translate(34.55499999999999 48.15)"/><path d="M1224.66 880.18V780v2.62" stroke="#333" fill="none"/><path d="M1225.16 880.72l-1-.07v-.48h1zM1225.16 783.12h-1v-.52h1z" fill="#333"/><path d="M1017.58 1129.7L1190.16 960" stroke="#333" fill="none"/><path d="M1017.94 1130.03h-1.43l.74-.7zM1190.94 959.93l-.44.43-.7-.7.3-.3z" fill="#333"/><path d="M1134.66 710.12c0-4.42 3.58-8 8-8h164c4.4 0 8 3.58 8 8v64c0 4.42-3.6 8-8 8h-164c-4.42 0-8-3.58-8-8z" stroke="#000" stroke-width="2" fill-opacity="0"/><use xlink:href="#t" transform="matrix(1,0,0,1,1139.6551554345065,707.1172251689111) translate(42.025 38.4625)"/><path d="M1014.2 598.92c3.67-2.45 9.63-2.45 13.3 0l61.7 41.12c3.67 2.45 3.67 6.43 0 8.88l-61.7 41.12c-3.67 2.45-9.63 2.45-13.3 0l-61.7-41.12c-3.67-2.45-3.67-6.43 0-8.88z" stroke="#fe5900" stroke-width="4" fill="#fff"/><use xlink:href="#j" transform="matrix(1,0,0,1,950.8489523638623,599.4816666666958) translate(38.55499999999999 48.15)"/><path d="M1094.37 644.48h130.3v56.14" stroke="#333" fill="none"/><path d="M1094.4 644.98h-.6l.15-1h.44zM1225.16 701.12h-1v-.52h1z" fill="#333"/><path d="M796.67 802.05V644.48h150.65" stroke="#333" fill="none"/><path d="M797.17 802.55h-1v-.5h1zM947.75 644.98h-.44v-1h.6z" fill="#333"/><path d="M1540 680c0 21.36-31.34 38.67-70 38.67s-70-17.3-70-38.67c0-21.36 31.34-38.67 70-38.67s70 17.3 70 38.67z" stroke="#000" stroke-opacity="0" stroke-width="2" fill="#ff9e56"/><use xlink:href="#r" transform="matrix(1,0,0,1,1405,646.3333333333333) translate(46.025 37.775)"/><path d="M1399.54 680.2l-83.43 37.33" stroke="#333" fill="none"/><path d="M1400 680l.02.54-.28.13-.4-.92.68-.3zM1316.33 717.98l-.67.3v-1.1l.26-.1z" fill="#333"/><path d="M1120 680.5V800h179.5M1120 680.5v-.5M1299.5 800h.5M1120.5 680h158.2M1120 680" stroke="#333" fill="none"/><path d="M1279.2 680l.08.5h-.58v-1h.58z" fill="#333"/><path d="M1300.22 680c0 6.7-4.47 12.12-10 12.12-5.52 0-10-5.43-10-12.12 0-6.7 4.48-12.12 10-12.12 5.53 0 10 5.43 10 12.12z" stroke="#000" stroke-width="2" fill="#333"/><path d="M1486.54 592.24c0 17.8-32.8 32.24-73.27 32.24S1340 610.05 1340 592.24c0-17.8 32.8-32.24 73.27-32.24 40.46 0 73.27 14.43 73.27 32.24z" stroke="#000" stroke-opacity="0" stroke-width="2" fill="#ff9e56"/><use xlink:href="#u" transform="matrix(1,0,0,1,1345,565) translate(39.75 31.5875)"/><path d="M1361.86 615.75l-46.03 93.58" stroke="#333" fill="none"/><path d="M1361.82 615.2l.73.28-.25.5-.9-.44.22-.44zM1316.28 709.54l-.62 1.27v-.78l-.18-.88z" fill="#333"/><path d="M1560 852.43c0 16.64-35.82 30.12-80 30.12s-80-13.48-80-30.12 35.82-30.12 80-30.12 80 13.5 80 30.13z" stroke="#000" stroke-opacity="0" stroke-width="2" fill="#ff9e56"/><use xlink:href="#v" transform="matrix(1,0,0,1,1405,827.30609502252) translate(54.88 30.3375)"/><path d="M1399.64 852.1L1316 774.67" stroke="#333" fill="none"/><path d="M1400.02 851.77l-.02.76.02.6-.73-.68.67-.74zM1316.35 774.33l-.68.73-.16-.14.16-.7v-.53z" fill="#333"/><path d="M1540 767.34c0 17.57-31.34 31.8-70 31.8s-70-14.23-70-31.8c0-17.58 31.34-31.82 70-31.82s70 14.24 70 31.82z" stroke="#000" stroke-opacity="0" stroke-width="2" fill="#ff9e56"/><use xlink:href="#w" transform="matrix(1,0,0,1,1405,740.5183333333041) translate(46.025 31.275)"/><path d="M1399.52 767.2l-83.4-24.94" stroke="#333" fill="none"/><path d="M1400.02 766.82l-.02.52.02.52-.65-.2.28-.95zM1316.3 741.8l-.3.94-.34-.1v-1.04z" fill="#333"/><path d="M480.22 1313.96c0 22.1-40.3 40-90 40s-90-17.9-90-40 40.3-40 90-40 90 17.9 90 40z" stroke="#000" stroke-opacity="0" stroke-width="2" fill="#ff9e56"/><use xlink:href="#x" transform="matrix(1,0,0,1,305.22238837906434,1278.9633333333913) translate(61.05 38.4625)"/><path d="M390.6 1273.64l72.12-61.28" stroke="#333" fill="none"/><path d="M390.9 1273.98l-.68-.02h-.78l.85-.7zM463.04 1212.75l-.6-.7h1.44z" fill="#333"/><path d="M680 1313.96c0 22.1-40.3 40-90 40s-90-17.9-90-40 40.3-40 90-40 90 17.9 90 40z" stroke="#000" stroke-opacity="0" stroke-width="2" fill="#ff9e56"/><use xlink:href="#y" transform="matrix(1,0,0,1,505,1278.9633333333913) translate(62.075 38.4625)"/><path d="M589.8 1273.5l-28.1-61" stroke="#333" fill="none"/><path d="M590.56 1273.98l-.56-.02h-.55l-.12-.25.9-.4zM562.17 1212.3l-.9.4-.32-.66h1.1z" fill="#333"/><path d="M380 1240c0 22.1-40.3 40-90 40s-90-17.9-90-40 40.3-40 90-40 90 17.9 90 40z" stroke="#000" stroke-opacity="0" stroke-width="2" fill="#ff9e56"/><use xlink:href="#g" transform="matrix(1,0,0,1,205,1205) translate(76.025 38.4625)"/><path d="M365.1 1217.52l63.77-19.1" stroke="#333" fill="none"/><path d="M365.26 1218l-.1.02-1.08-.72.9-.27zM429.34 1198.8l-.34.1-.3-.95.64-.2z" fill="#333"/><path d="M400 1140c0 22.1-40.3 40-90 40s-90-17.9-90-40 40.3-40 90-40 90 17.9 90 40z" stroke="#000" stroke-opacity="0" stroke-width="2" fill="#ff9e56"/><use xlink:href="#z" transform="matrix(1,0,0,1,225,1105) translate(64 38.4625)"/><path d="M368.44 1170.6l60.4.43" stroke="#333" fill="none"/><path d="M368.45 1171.1l-1.8-.03.28-.1 1.52-.6zM429.34 1170.54v1h-.5v-1z" fill="#333"/><path d="M1380.22 1260c0 22.1-40.3 40-90 40s-90-17.9-90-40 40.3-40 90-40 90 17.9 90 40z" stroke="#000" stroke-opacity="0" stroke-width="2" fill="#ff9e56"/><use xlink:href="#A" transform="matrix(1,0,0,1,1205.2223883790643,1225) translate(67.05 38.4625)"/><path d="M1206.56 1244.55l-145.1-56.63" stroke="#333" fill="none"/><path d="M1207.4 1244.34l-.74.8-.3-.13.37-.92zM1061.66 1187.45l-.36.94-.3-.13v-1.07z" fill="#333"/><path d="M520 1111.04h40v20h-40z" stroke="#000" stroke-opacity="0" stroke-width="2" fill="#fff" fill-opacity="0"/><use xlink:href="#B" transform="matrix(1,0,0,1,525,1116.0366666666087) translate(3.8888888888888875 10.666666666666668)"/><path d="M520 920h20v20h-20z" stroke="#000" stroke-opacity="0" stroke-width="2" fill="#fff" fill-opacity="0"/><use xlink:href="#C" transform="matrix(1,0,0,1,525,925) translate(1.2962962962962958 10.666666666666668)"/><path d="M845 1150h40v20h-40z" stroke="#000" stroke-opacity="0" stroke-width="2" fill="#fff" fill-opacity="0"/><use xlink:href="#D" transform="matrix(1,0,0,1,850,1155) translate(3.8888888888888875 10.666666666666668)"/><path d="M610.34 1150h40v20h-40z" stroke="#000" stroke-opacity="0" stroke-width="2" fill="#fff" fill-opacity="0"/><use xlink:href="#B" transform="matrix(1,0,0,1,615.3448445654931,1155) translate(3.8888888888888875 10.666666666666668)"/><path d="M1220 801.06h40v20h-40z" stroke="#000" stroke-opacity="0" stroke-width="2" fill="#fff" fill-opacity="0"/><use xlink:href="#B" transform="matrix(1,0,0,1,1225,806.0586125844555) translate(3.8888888888888875 10.666666666666668)"/><path d="M1020 1111.04h40v20h-40z" stroke="#000" stroke-opacity="0" stroke-width="2" fill="#fff" fill-opacity="0"/><use xlink:href="#C" transform="matrix(1,0,0,1,1025,1116.0366666666087) translate(11.296296296296296 10.666666666666668)"/><path d="M790 780h40v20h-40z" stroke="#000" stroke-opacity="0" stroke-width="2" fill="#fff" fill-opacity="0"/><use xlink:href="#C" transform="matrix(1,0,0,1,795,785) translate(11.296296296296296 10.666666666666668)"/><path d="M1220 640h40v20h-40z" stroke="#000" stroke-opacity="0" stroke-width="2" fill="#fff" fill-opacity="0"/><use xlink:href="#B" transform="matrix(1,0,0,1,1225,645) translate(3.8888888888888875 10.666666666666668)"/><path d="M970 440c0 22.1-40.3 40-90 40s-90-17.9-90-40 40.3-40 90-40 90 17.9 90 40z" stroke="#000" stroke-opacity="0" stroke-width="2" fill="#ff9e56"/><use xlink:href="#E" transform="matrix(1,0,0,1,794.9999999999998,405) translate(69.525 38.4625)"/><path d="M822.5 471.06l-78.05 25.3" stroke="#333" fill="none"/><path d="M823.72 471.2l-1.08.34-.28-.86zM744.62 496.82l-.36.12-.58-.86.63-.2z" fill="#333"/><defs><path fill="#fff" d="M232-93c-1 65-40 97-104 97C67 4 28-28 28-90v-158h33c8 89-33 224 67 224 102 0 64-133 71-224h33v155" id="F"/><path fill="#fff" d="M135-143c-3-34-86-38-87 0 15 53 115 12 119 90S17 21 10-45l28-5c4 36 97 45 98 0-10-56-113-15-118-90-4-57 82-63 122-42 12 7 21 19 24 35" id="G"/><path fill="#fff" d="M100-194c63 0 86 42 84 106H49c0 40 14 67 53 68 26 1 43-12 49-29l28 8c-11 28-37 45-77 45C44 4 14-33 15-96c1-61 26-98 85-98zm52 81c6-60-76-77-97-28-3 7-6 17-6 28h103" id="H"/><path fill="#fff" d="M114-163C36-179 61-72 57 0H25l-1-190h30c1 12-1 29 2 39 6-27 23-49 58-41v29" id="I"/><path fill="#fff" d="M117-194c89-4 53 116 60 194h-32v-121c0-31-8-49-39-48C34-167 62-67 57 0H25l-1-190h30c1 10-1 24 2 32 11-22 29-35 61-36" id="J"/><path fill="#fff" d="M141-36C126-15 110 5 73 4 37 3 15-17 15-53c-1-64 63-63 125-63 3-35-9-54-41-54-24 1-41 7-42 31l-33-3c5-37 33-52 76-52 45 0 72 20 72 64v82c-1 20 7 32 28 27v20c-31 9-61-2-59-35zM48-53c0 20 12 33 32 33 41-3 63-29 60-74-43 2-92-5-92 41" id="K"/><path fill="#fff" d="M210-169c-67 3-38 105-44 169h-31v-121c0-29-5-50-35-48C34-165 62-65 56 0H25l-1-190h30c1 10-1 24 2 32 10-44 99-50 107 0 11-21 27-35 58-36 85-2 47 119 55 194h-31v-121c0-29-5-49-35-48" id="L"/><g id="a"><use transform="matrix(0.05,0,0,0.05,0,0)" xlink:href="#F"/><use transform="matrix(0.05,0,0,0.05,12.950000000000001,0)" xlink:href="#G"/><use transform="matrix(0.05,0,0,0.05,21.950000000000003,0)" xlink:href="#H"/><use transform="matrix(0.05,0,0,0.05,31.950000000000003,0)" xlink:href="#I"/><use transform="matrix(0.05,0,0,0.05,37.900000000000006,0)" xlink:href="#J"/><use transform="matrix(0.05,0,0,0.05,47.900000000000006,0)" xlink:href="#K"/><use transform="matrix(0.05,0,0,0.05,57.900000000000006,0)" xlink:href="#L"/><use transform="matrix(0.05,0,0,0.05,72.85000000000001,0)" xlink:href="#H"/></g><path fill="#fff" d="M30-248c87 1 191-15 191 75 0 78-77 80-158 76V0H30v-248zm33 125c57 0 124 11 124-50 0-59-68-47-124-48v98" id="M"/><path fill="#fff" d="M206 0h-36l-40-164L89 0H53L-1-190h32L70-26l43-164h34l41 164 42-164h31" id="N"/><path fill="#fff" d="M100-194c62-1 85 37 85 99 1 63-27 99-86 99S16-35 15-95c0-66 28-99 85-99zM99-20c44 1 53-31 53-75 0-43-8-75-51-75s-53 32-53 75 10 74 51 75" id="O"/><path fill="#fff" d="M85-194c31 0 48 13 60 33l-1-100h32l1 261h-30c-2-10 0-23-3-31C134-8 116 4 85 4 32 4 16-35 15-94c0-66 23-100 70-100zm9 24c-40 0-46 34-46 75 0 40 6 74 45 74 42 0 51-32 51-76 0-42-9-74-50-73" id="P"/><g id="b"><use transform="matrix(0.05,0,0,0.05,0,0)" xlink:href="#M"/><use transform="matrix(0.05,0,0,0.05,12,0)" xlink:href="#K"/><use transform="matrix(0.05,0,0,0.05,22,0)" xlink:href="#G"/><use transform="matrix(0.05,0,0,0.05,31,0)" xlink:href="#G"/><use transform="matrix(0.05,0,0,0.05,40,0)" xlink:href="#N"/><use transform="matrix(0.05,0,0,0.05,52.95,0)" xlink:href="#O"/><use transform="matrix(0.05,0,0,0.05,62.95,0)" xlink:href="#I"/><use transform="matrix(0.05,0,0,0.05,68.9,0)" xlink:href="#P"/></g><path d="M232-93c-1 65-40 97-104 97C67 4 28-28 28-90v-158h33c8 89-33 224 67 224 102 0 64-133 71-224h33v155" id="Q"/><path d="M135-143c-3-34-86-38-87 0 15 53 115 12 119 90S17 21 10-45l28-5c4 36 97 45 98 0-10-56-113-15-118-90-4-57 82-63 122-42 12 7 21 19 24 35" id="R"/><path d="M100-194c63 0 86 42 84 106H49c0 40 14 67 53 68 26 1 43-12 49-29l28 8c-11 28-37 45-77 45C44 4 14-33 15-96c1-61 26-98 85-98zm52 81c6-60-76-77-97-28-3 7-6 17-6 28h103" id="S"/><path d="M114-163C36-179 61-72 57 0H25l-1-190h30c1 12-1 29 2 39 6-27 23-49 58-41v29" id="T"/><g id="c"><use transform="matrix(0.05,0,0,0.05,0,0)" xlink:href="#Q"/><use transform="matrix(0.05,0,0,0.05,12.950000000000001,0)" xlink:href="#R"/><use transform="matrix(0.05,0,0,0.05,21.950000000000003,0)" xlink:href="#S"/><use transform="matrix(0.05,0,0,0.05,31.950000000000003,0)" xlink:href="#T"/></g><path fill="#fff" d="M30 0v-248h187v28H63v79h144v27H63v87h162V0H30" id="U"/><path fill="#fff" d="M24-231v-30h32v30H24zM24 0v-190h32V0H24" id="V"/><path fill="#fff" d="M24 0v-261h32V0H24" id="W"/><g id="d"><use transform="matrix(0.05,0,0,0.05,0,0)" xlink:href="#U"/><use transform="matrix(0.05,0,0,0.05,12,0)" xlink:href="#L"/><use transform="matrix(0.05,0,0,0.05,26.950000000000003,0)" xlink:href="#K"/><use transform="matrix(0.05,0,0,0.05,36.95,0)" xlink:href="#V"/><use transform="matrix(0.05,0,0,0.05,40.900000000000006,0)" xlink:href="#W"/></g><path fill="#fff" d="M141 0L90-78 38 0H4l68-98-65-92h35l48 74 47-74h35l-64 92 68 98h-35" id="X"/><path fill="#fff" d="M115-194c55 1 70 41 70 98S169 2 115 4C84 4 66-9 55-30l1 105H24l-1-265h31l2 30c10-21 28-34 59-34zm-8 174c40 0 45-34 45-75s-6-73-45-74c-42 0-51 32-51 76 0 43 10 73 51 73" id="Y"/><path fill="#fff" d="M108 0H70L1-190h34L89-25l56-165h34" id="Z"/><g id="e"><use transform="matrix(0.05,0,0,0.05,0,0)" xlink:href="#U"/><use transform="matrix(0.05,0,0,0.05,12,0)" xlink:href="#X"/><use transform="matrix(0.05,0,0,0.05,21,0)" xlink:href="#Y"/><use transform="matrix(0.05,0,0,0.05,31,0)" xlink:href="#W"/><use transform="matrix(0.05,0,0,0.05,34.95,0)" xlink:href="#H"/><use transform="matrix(0.05,0,0,0.05,44.95,0)" xlink:href="#Z"/><use transform="matrix(0.05,0,0,0.05,53.95,0)" xlink:href="#H"/><use transform="matrix(0.05,0,0,0.05,63.95,0)" xlink:href="#W"/></g><path fill="#fff" d="M106-169C34-169 62-67 57 0H25v-261h32l-1 103c12-21 28-36 61-36 89 0 53 116 60 194h-32v-121c2-32-8-49-39-48" id="aa"/><path fill="#fff" d="M59-47c-2 24 18 29 38 22v24C64 9 27 4 27-40v-127H5v-23h24l9-43h21v43h35v23H59v120" id="ab"/><g id="f"><use transform="matrix(0.05,0,0,0.05,0,0)" xlink:href="#M"/><use transform="matrix(0.05,0,0,0.05,12,0)" xlink:href="#aa"/><use transform="matrix(0.05,0,0,0.05,22,0)" xlink:href="#O"/><use transform="matrix(0.05,0,0,0.05,32,0)" xlink:href="#ab"/><use transform="matrix(0.05,0,0,0.05,37,0)" xlink:href="#O"/></g><path fill="#fff" d="M33 0v-248h34V0H33" id="ac"/><path fill="#fff" d="M30-248c118-7 216 8 213 122C240-48 200 0 122 0H30v-248zM63-27c89 8 146-16 146-99s-60-101-146-95v194" id="ad"/><g id="g"><use transform="matrix(0.05,0,0,0.05,0,0)" xlink:href="#ac"/><use transform="matrix(0.05,0,0,0.05,5,0)" xlink:href="#ad"/><path fill="#fff" d="M-.9 1.25h19.75v1.32H-.9z"/></g><path fill="#fff" d="M240 0l2-218c-23 76-54 145-80 218h-23L58-218 59 0H30v-248h44l77 211c21-75 51-140 76-211h43V0h-30" id="ae"/><path fill="#fff" d="M177-190C167-65 218 103 67 71c-23-6-38-20-44-43l32-5c15 47 100 32 89-28v-30C133-14 115 1 83 1 29 1 15-40 15-95c0-56 16-97 71-98 29-1 48 16 59 35 1-10 0-23 2-32h30zM94-22c36 0 50-32 50-73 0-42-14-75-50-75-39 0-46 34-46 75s6 73 46 73" id="af"/><g id="h"><use transform="matrix(0.05,0,0,0.05,0,0)" xlink:href="#ae"/><use transform="matrix(0.05,0,0,0.05,14.950000000000001,0)" xlink:href="#K"/><use transform="matrix(0.05,0,0,0.05,24.950000000000003,0)" xlink:href="#J"/><use transform="matrix(0.05,0,0,0.05,34.95,0)" xlink:href="#K"/><use transform="matrix(0.05,0,0,0.05,44.95,0)" xlink:href="#af"/><use transform="matrix(0.05,0,0,0.05,54.95,0)" xlink:href="#H"/><use transform="matrix(0.05,0,0,0.05,64.95,0)" xlink:href="#I"/></g><path fill="#fff" d="M30 0v-248h33v221h125V0H30" id="ag"/><g id="i"><use transform="matrix(0.05,0,0,0.05,0,0)" xlink:href="#ag"/><use transform="matrix(0.05,0,0,0.05,10,0)" xlink:href="#K"/><use transform="matrix(0.05,0,0,0.05,20,0)" xlink:href="#Z"/><use transform="matrix(0.05,0,0,0.05,29,0)" xlink:href="#O"/><use transform="matrix(0.05,0,0,0.05,39,0)" xlink:href="#I"/><use transform="matrix(0.05,0,0,0.05,44.95,0)" xlink:href="#K"/><use transform="matrix(0.05,0,0,0.05,54.95,0)" xlink:href="#ab"/><use transform="matrix(0.05,0,0,0.05,59.95,0)" xlink:href="#O"/><use transform="matrix(0.05,0,0,0.05,69.95,0)" xlink:href="#I"/><use transform="matrix(0.05,0,0,0.05,75.9,0)" xlink:href="#H"/></g><path fill="#666" d="M212-179c-10-28-35-45-73-45-59 0-87 40-87 99 0 60 29 101 89 101 43 0 62-24 78-52l27 14C228-24 195 4 139 4 59 4 22-46 18-125c-6-104 99-153 187-111 19 9 31 26 39 46" id="ah"/><path fill="#666" d="M114-163C36-179 61-72 57 0H25l-1-190h30c1 12-1 29 2 39 6-27 23-49 58-41v29" id="ai"/><path fill="#666" d="M100-194c63 0 86 42 84 106H49c0 40 14 67 53 68 26 1 43-12 49-29l28 8c-11 28-37 45-77 45C44 4 14-33 15-96c1-61 26-98 85-98zm52 81c6-60-76-77-97-28-3 7-6 17-6 28h103" id="aj"/><path fill="#666" d="M141-36C126-15 110 5 73 4 37 3 15-17 15-53c-1-64 63-63 125-63 3-35-9-54-41-54-24 1-41 7-42 31l-33-3c5-37 33-52 76-52 45 0 72 20 72 64v82c-1 20 7 32 28 27v20c-31 9-61-2-59-35zM48-53c0 20 12 33 32 33 41-3 63-29 60-74-43 2-92-5-92 41" id="ak"/><path fill="#666" d="M59-47c-2 24 18 29 38 22v24C64 9 27 4 27-40v-127H5v-23h24l9-43h21v43h35v23H59v120" id="al"/><path fill="#666" d="M135-143c-3-34-86-38-87 0 15 53 115 12 119 90S17 21 10-45l28-5c4 36 97 45 98 0-10-56-113-15-118-90-4-57 82-63 122-42 12 7 21 19 24 35" id="am"/><g id="j"><use transform="matrix(0.05,0,0,0.05,0,0)" xlink:href="#ah"/><use transform="matrix(0.05,0,0,0.05,12.950000000000001,0)" xlink:href="#ai"/><use transform="matrix(0.05,0,0,0.05,18.900000000000002,0)" xlink:href="#aj"/><use transform="matrix(0.05,0,0,0.05,28.900000000000002,0)" xlink:href="#ak"/><use transform="matrix(0.05,0,0,0.05,38.900000000000006,0)" xlink:href="#al"/><use transform="matrix(0.05,0,0,0.05,43.900000000000006,0)" xlink:href="#aj"/><use transform="matrix(0.05,0,0,0.05,53.900000000000006,0)" xlink:href="#am"/></g><path d="M212-179c-10-28-35-45-73-45-59 0-87 40-87 99 0 60 29 101 89 101 43 0 62-24 78-52l27 14C228-24 195 4 139 4 59 4 22-46 18-125c-6-104 99-153 187-111 19 9 31 26 39 46" id="an"/><path d="M141-36C126-15 110 5 73 4 37 3 15-17 15-53c-1-64 63-63 125-63 3-35-9-54-41-54-24 1-41 7-42 31l-33-3c5-37 33-52 76-52 45 0 72 20 72 64v82c-1 20 7 32 28 27v20c-31 9-61-2-59-35zM48-53c0 20 12 33 32 33 41-3 63-29 60-74-43 2-92-5-92 41" id="ao"/><path d="M210-169c-67 3-38 105-44 169h-31v-121c0-29-5-50-35-48C34-165 62-65 56 0H25l-1-190h30c1 10-1 24 2 32 10-44 99-50 107 0 11-21 27-35 58-36 85-2 47 119 55 194h-31v-121c0-29-5-49-35-48" id="ap"/><path d="M115-194c55 1 70 41 70 98S169 2 115 4C84 4 66-9 55-30l1 105H24l-1-265h31l2 30c10-21 28-34 59-34zm-8 174c40 0 45-34 45-75s-6-73-45-74c-42 0-51 32-51 76 0 43 10 73 51 73" id="aq"/><path d="M24-231v-30h32v30H24zM24 0v-190h32V0H24" id="ar"/><path d="M177-190C167-65 218 103 67 71c-23-6-38-20-44-43l32-5c15 47 100 32 89-28v-30C133-14 115 1 83 1 29 1 15-40 15-95c0-56 16-97 71-98 29-1 48 16 59 35 1-10 0-23 2-32h30zM94-22c36 0 50-32 50-73 0-42-14-75-50-75-39 0-46 34-46 75s6 73 46 73" id="as"/><path d="M117-194c89-4 53 116 60 194h-32v-121c0-31-8-49-39-48C34-167 62-67 57 0H25l-1-190h30c1 10-1 24 2 32 11-22 29-35 61-36" id="at"/><g id="k"><use transform="matrix(0.05,0,0,0.05,0,0)" xlink:href="#an"/><use transform="matrix(0.05,0,0,0.05,12.950000000000001,0)" xlink:href="#ao"/><use transform="matrix(0.05,0,0,0.05,22.950000000000003,0)" xlink:href="#ap"/><use transform="matrix(0.05,0,0,0.05,37.900000000000006,0)" xlink:href="#aq"/><use transform="matrix(0.05,0,0,0.05,47.900000000000006,0)" xlink:href="#ao"/><use transform="matrix(0.05,0,0,0.05,57.900000000000006,0)" xlink:href="#ar"/><use transform="matrix(0.05,0,0,0.05,61.85,0)" xlink:href="#as"/><use transform="matrix(0.05,0,0,0.05,71.85000000000001,0)" xlink:href="#at"/></g><path d="M33 0v-248h34V0H33" id="au"/><g id="l"><use transform="matrix(0.05,0,0,0.05,0,0)" xlink:href="#au"/><use transform="matrix(0.05,0,0,0.05,5,0)" xlink:href="#ap"/><use transform="matrix(0.05,0,0,0.05,19.950000000000003,0)" xlink:href="#ao"/><use transform="matrix(0.05,0,0,0.05,29.950000000000003,0)" xlink:href="#as"/><use transform="matrix(0.05,0,0,0.05,39.95,0)" xlink:href="#S"/></g><path fill="#666" d="M100-194c62-1 85 37 85 99 1 63-27 99-86 99S16-35 15-95c0-66 28-99 85-99zM99-20c44 1 53-31 53-75 0-43-8-75-51-75s-53 32-53 75 10 74 51 75" id="av"/><path fill="#666" d="M117-194c89-4 53 116 60 194h-32v-121c0-31-8-49-39-48C34-167 62-67 57 0H25l-1-190h30c1 10-1 24 2 32 11-22 29-35 61-36" id="aw"/><path fill="#666" d="M24-231v-30h32v30H24zM24 0v-190h32V0H24" id="ax"/><g id="m"><use transform="matrix(0.05,0,0,0.05,0,0)" xlink:href="#ah"/><use transform="matrix(0.05,0,0,0.05,12.950000000000001,0)" xlink:href="#av"/><use transform="matrix(0.05,0,0,0.05,22.950000000000003,0)" xlink:href="#aw"/><use transform="matrix(0.05,0,0,0.05,32.95,0)" xlink:href="#al"/><use transform="matrix(0.05,0,0,0.05,37.95,0)" xlink:href="#ak"/><use transform="matrix(0.05,0,0,0.05,47.95,0)" xlink:href="#ax"/><use transform="matrix(0.05,0,0,0.05,51.900000000000006,0)" xlink:href="#aw"/><use transform="matrix(0.05,0,0,0.05,61.900000000000006,0)" xlink:href="#am"/></g><path fill="#fff" d="M212-179c-10-28-35-45-73-45-59 0-87 40-87 99 0 60 29 101 89 101 43 0 62-24 78-52l27 14C228-24 195 4 139 4 59 4 22-46 18-125c-6-104 99-153 187-111 19 9 31 26 39 46" id="ay"/><g id="n"><use transform="matrix(0.05,0,0,0.05,0,0)" xlink:href="#ay"/><use transform="matrix(0.05,0,0,0.05,12.950000000000001,0)" xlink:href="#O"/><use transform="matrix(0.05,0,0,0.05,22.950000000000003,0)" xlink:href="#O"/><use transform="matrix(0.05,0,0,0.05,32.95,0)" xlink:href="#I"/><use transform="matrix(0.05,0,0,0.05,38.900000000000006,0)" xlink:href="#P"/><use transform="matrix(0.05,0,0,0.05,48.900000000000006,0)" xlink:href="#V"/><use transform="matrix(0.05,0,0,0.05,52.85,0)" xlink:href="#J"/><use transform="matrix(0.05,0,0,0.05,62.85,0)" xlink:href="#K"/><use transform="matrix(0.05,0,0,0.05,72.85000000000001,0)" xlink:href="#ab"/><use transform="matrix(0.05,0,0,0.05,77.85000000000001,0)" xlink:href="#H"/><use transform="matrix(0.05,0,0,0.05,87.85000000000001,0)" xlink:href="#G"/><path fill="#fff" d="M-.9 1.25h98.65v1.32H-.9z"/></g><path fill="#fff" d="M127-220V0H93v-220H8v-28h204v28h-85" id="az"/><g id="o"><use transform="matrix(0.05,0,0,0.05,0,0)" xlink:href="#az"/><use transform="matrix(0.05,0,0,0.05,8.950000000000001,0)" xlink:href="#O"/><use transform="matrix(0.05,0,0,0.05,18.950000000000003,0)" xlink:href="#N"/><use transform="matrix(0.05,0,0,0.05,31.900000000000006,0)" xlink:href="#J"/></g><path fill="#fff" d="M233-177c-1 41-23 64-60 70L243 0h-38l-65-103H63V0H30v-248c88 3 205-21 203 71zM63-129c60-2 137 13 137-47 0-61-80-42-137-45v92" id="aA"/><g id="p"><use transform="matrix(0.05,0,0,0.05,0,0)" xlink:href="#aA"/><use transform="matrix(0.05,0,0,0.05,12.950000000000001,0)" xlink:href="#H"/><use transform="matrix(0.05,0,0,0.05,22.950000000000003,0)" xlink:href="#af"/><use transform="matrix(0.05,0,0,0.05,32.95,0)" xlink:href="#V"/><use transform="matrix(0.05,0,0,0.05,36.900000000000006,0)" xlink:href="#O"/><use transform="matrix(0.05,0,0,0.05,46.900000000000006,0)" xlink:href="#J"/></g><path fill="#fff" d="M185-189c-5-48-123-54-124 2 14 75 158 14 163 119 3 78-121 87-175 55-17-10-28-26-33-46l33-7c5 56 141 63 141-1 0-78-155-14-162-118-5-82 145-84 179-34 5 7 8 16 11 25" id="aB"/><path fill="#fff" d="M84 4C-5 8 30-112 23-190h32v120c0 31 7 50 39 49 72-2 45-101 50-169h31l1 190h-30c-1-10 1-25-2-33-11 22-28 36-60 37" id="aC"/><path fill="#fff" d="M96-169c-40 0-48 33-48 73s9 75 48 75c24 0 41-14 43-38l32 2c-6 37-31 61-74 61-59 0-76-41-82-99-10-93 101-131 147-64 4 7 5 14 7 22l-32 3c-4-21-16-35-41-35" id="aD"/><g id="q"><use transform="matrix(0.05,0,0,0.05,0,0)" xlink:href="#aB"/><use transform="matrix(0.05,0,0,0.05,12,0)" xlink:href="#O"/><use transform="matrix(0.05,0,0,0.05,22,0)" xlink:href="#aC"/><use transform="matrix(0.05,0,0,0.05,32,0)" xlink:href="#I"/><use transform="matrix(0.05,0,0,0.05,37.95,0)" xlink:href="#aD"/><use transform="matrix(0.05,0,0,0.05,46.95,0)" xlink:href="#H"/></g><g id="r"><use transform="matrix(0.05,0,0,0.05,0,0)" xlink:href="#ad"/><use transform="matrix(0.05,0,0,0.05,12.950000000000001,0)" xlink:href="#K"/><use transform="matrix(0.05,0,0,0.05,22.950000000000003,0)" xlink:href="#ab"/><use transform="matrix(0.05,0,0,0.05,27.950000000000003,0)" xlink:href="#H"/></g><g id="s"><use transform="matrix(0.05,0,0,0.05,0,0)" xlink:href="#aA"/><use transform="matrix(0.05,0,0,0.05,12.950000000000001,0)" xlink:href="#H"/><use transform="matrix(0.05,0,0,0.05,22.950000000000003,0)" xlink:href="#G"/><use transform="matrix(0.05,0,0,0.05,31.950000000000003,0)" xlink:href="#O"/><use transform="matrix(0.05,0,0,0.05,41.95,0)" xlink:href="#W"/><use transform="matrix(0.05,0,0,0.05,45.900000000000006,0)" xlink:href="#aC"/><use transform="matrix(0.05,0,0,0.05,55.900000000000006,0)" xlink:href="#ab"/><use transform="matrix(0.05,0,0,0.05,60.900000000000006,0)" xlink:href="#V"/><use transform="matrix(0.05,0,0,0.05,64.85000000000001,0)" xlink:href="#O"/><use transform="matrix(0.05,0,0,0.05,74.85000000000001,0)" xlink:href="#J"/></g><path d="M205 0l-28-72H64L36 0H1l101-248h38L239 0h-34zm-38-99l-47-123c-12 45-31 82-46 123h93" id="aE"/><path d="M100-194c62-1 85 37 85 99 1 63-27 99-86 99S16-35 15-95c0-66 28-99 85-99zM99-20c44 1 53-31 53-75 0-43-8-75-51-75s-53 32-53 75 10 74 51 75" id="aF"/><path d="M59-47c-2 24 18 29 38 22v24C64 9 27 4 27-40v-127H5v-23h24l9-43h21v43h35v23H59v120" id="aG"/><g id="t"><use transform="matrix(0.05,0,0,0.05,0,0)" xlink:href="#aE"/><use transform="matrix(0.05,0,0,0.05,12,0)" xlink:href="#at"/><use transform="matrix(0.05,0,0,0.05,22,0)" xlink:href="#at"/><use transform="matrix(0.05,0,0,0.05,32,0)" xlink:href="#aF"/><use transform="matrix(0.05,0,0,0.05,42,0)" xlink:href="#aG"/><use transform="matrix(0.05,0,0,0.05,47,0)" xlink:href="#ao"/><use transform="matrix(0.05,0,0,0.05,57,0)" xlink:href="#aG"/><use transform="matrix(0.05,0,0,0.05,62,0)" xlink:href="#ar"/><use transform="matrix(0.05,0,0,0.05,65.95,0)" xlink:href="#aF"/><use transform="matrix(0.05,0,0,0.05,75.95,0)" xlink:href="#at"/></g><path fill="#fff" d="M137 0h-34L2-248h35l83 218 83-218h36" id="aH"/><path fill="#fff" d="M179-190L93 31C79 59 56 82 12 73V49c39 6 53-20 64-50L1-190h34L92-34l54-156h33" id="aI"/><g id="u"><use transform="matrix(0.05,0,0,0.05,0,0)" xlink:href="#aH"/><use transform="matrix(0.05,0,0,0.05,10.65,0)" xlink:href="#K"/><use transform="matrix(0.05,0,0,0.05,20.65,0)" xlink:href="#W"/><use transform="matrix(0.05,0,0,0.05,24.599999999999998,0)" xlink:href="#V"/><use transform="matrix(0.05,0,0,0.05,28.549999999999997,0)" xlink:href="#P"/><use transform="matrix(0.05,0,0,0.05,38.55,0)" xlink:href="#V"/><use transform="matrix(0.05,0,0,0.05,42.5,0)" xlink:href="#ab"/><use transform="matrix(0.05,0,0,0.05,47.5,0)" xlink:href="#aI"/></g><g id="v"><use transform="matrix(0.05,0,0,0.05,0,0)" xlink:href="#az"/><use transform="matrix(0.05,0,0,0.05,10.3,0)" xlink:href="#I"/><use transform="matrix(0.05,0,0,0.05,16.25,0)" xlink:href="#aC"/><use transform="matrix(0.05,0,0,0.05,26.25,0)" xlink:href="#G"/><use transform="matrix(0.05,0,0,0.05,35.25,0)" xlink:href="#ab"/></g><path fill="#fff" d="M190 0L58-211 59 0H30v-248h39L202-35l-2-213h31V0h-41" id="aJ"/><g id="w"><use transform="matrix(0.05,0,0,0.05,0,0)" xlink:href="#aJ"/><use transform="matrix(0.05,0,0,0.05,12.950000000000001,0)" xlink:href="#O"/><use transform="matrix(0.05,0,0,0.05,22.950000000000003,0)" xlink:href="#ab"/><use transform="matrix(0.05,0,0,0.05,27.950000000000003,0)" xlink:href="#H"/></g><g id="x"><use transform="matrix(0.05,0,0,0.05,0,0)" xlink:href="#aJ"/><use transform="matrix(0.05,0,0,0.05,12.950000000000001,0)" xlink:href="#K"/><use transform="matrix(0.05,0,0,0.05,22.950000000000003,0)" xlink:href="#L"/><use transform="matrix(0.05,0,0,0.05,37.900000000000006,0)" xlink:href="#H"/><path fill="#fff" d="M-.9 1.25h49.7v1.32H-.9z"/></g><g id="y"><use transform="matrix(0.05,0,0,0.05,0,0)" xlink:href="#ay"/><use transform="matrix(0.05,0,0,0.05,12.950000000000001,0)" xlink:href="#W"/><use transform="matrix(0.05,0,0,0.05,16.900000000000002,0)" xlink:href="#V"/><use transform="matrix(0.05,0,0,0.05,20.85,0)" xlink:href="#H"/><use transform="matrix(0.05,0,0,0.05,30.85,0)" xlink:href="#J"/><use transform="matrix(0.05,0,0,0.05,40.85,0)" xlink:href="#ab"/></g><g id="z"><use transform="matrix(0.05,0,0,0.05,0,0)" xlink:href="#aB"/><use transform="matrix(0.05,0,0,0.05,12,0)" xlink:href="#ab"/><use transform="matrix(0.05,0,0,0.05,17,0)" xlink:href="#K"/><use transform="matrix(0.05,0,0,0.05,27,0)" xlink:href="#ab"/><use transform="matrix(0.05,0,0,0.05,32,0)" xlink:href="#H"/></g><g id="A"><use transform="matrix(0.05,0,0,0.05,0,0)" xlink:href="#F"/><use transform="matrix(0.05,0,0,0.05,12.950000000000001,0)" xlink:href="#aA"/><use transform="matrix(0.05,0,0,0.05,25.900000000000002,0)" xlink:href="#ag"/><path fill="#fff" d="M-.9 1.25h37.7v1.32H-.9z"/></g><path d="M101-251c68 0 85 55 85 127S166 4 100 4C33 4 14-52 14-124c0-73 17-127 87-127zm-1 229c47 0 54-49 54-102s-4-102-53-102c-51 0-55 48-55 102 0 53 5 102 54 102" id="aK"/><path d="M33 0v-38h34V0H33" id="aL"/><g id="B"><use transform="matrix(0.03703703703703704,0,0,0.03703703703703704,0,0)" xlink:href="#aK"/><use transform="matrix(0.03703703703703704,0,0,0.03703703703703704,7.407407407407408,0)" xlink:href="#aL"/><use transform="matrix(0.03703703703703704,0,0,0.03703703703703704,11.111111111111112,0)" xlink:href="#aL"/><use transform="matrix(0.03703703703703704,0,0,0.03703703703703704,14.814814814814817,0)" xlink:href="#at"/></g><path d="M27 0v-27h64v-190l-56 39v-29l58-41h29v221h61V0H27" id="aM"/><use transform="matrix(0.03703703703703704,0,0,0.03703703703703704,0,0)" xlink:href="#aM" id="C"/><g id="D"><use transform="matrix(0.03703703703703704,0,0,0.03703703703703704,0,0)" xlink:href="#aM"/><use transform="matrix(0.03703703703703704,0,0,0.03703703703703704,7.407407407407408,0)" xlink:href="#aL"/><use transform="matrix(0.03703703703703704,0,0,0.03703703703703704,11.111111111111112,0)" xlink:href="#aL"/><use transform="matrix(0.03703703703703704,0,0,0.03703703703703704,14.814814814814817,0)" xlink:href="#at"/></g><g id="E"><use transform="matrix(0.05,0,0,0.05,0,0)" xlink:href="#aB"/><use transform="matrix(0.05,0,0,0.05,12,0)" xlink:href="#K"/><use transform="matrix(0.05,0,0,0.05,22,0)" xlink:href="#W"/><use transform="matrix(0.05,0,0,0.05,25.950000000000003,0)" xlink:href="#ab"/></g></defs></g></svg>